<svg xmlns="http://www.w3.org/2000/svg" width="188" height="188" viewBox="0 0 188 188"><defs><clipPath id="fuoma"><path fill="#fff" d="M94 0c51.915 0 94 42.085 94 94s-42.085 94-94 94S0 145.915 0 94 42.085 0 94 0z"/></clipPath></defs><g><g opacity=".1"><path d="M94 0c51.915 0 94 42.085 94 94s-42.085 94-94 94S0 145.915 0 94 42.085 0 94 0z"/><path fill="none" stroke="#2c2c2c" stroke-linecap="round" stroke-linejoin="round" stroke-miterlimit="50" stroke-width="64" d="M94 0c51.915 0 94 42.085 94 94s-42.085 94-94 94S0 145.915 0 94 42.085 0 94 0z" clip-path="url(&quot;#fuoma&quot;)"/></g></g></svg>