<svg xmlns="http://www.w3.org/2000/svg" width="15" height="11" viewBox="0 0 15 11"><g><g><path d="M10.093.168a.514.514 0 0 0-.755 0 .572.572 0 0 0 0 .78l3.83 3.992H.528A.538.538 0 0 0 0 5.49c0 .307.234.56.529.56h12.639l-3.83 3.984a.583.583 0 0 0 0 .788c.211.22.551.22.755 0l4.737-4.938a.558.558 0 0 0 0-.779z"/><path fill="#fff" d="M10.093.168a.514.514 0 0 0-.755 0 .572.572 0 0 0 0 .78l3.83 3.992H.528A.538.538 0 0 0 0 5.49c0 .307.234.56.529.56h12.639l-3.83 3.984a.583.583 0 0 0 0 .788c.211.22.551.22.755 0l4.737-4.938a.558.558 0 0 0 0-.779z"/></g></g></svg>