<svg xmlns="http://www.w3.org/2000/svg" width="93" height="93"><defs><clipPath id="a"><path fill="#fff" d="M46.5 0C72.181 0 93 20.818 93 46.5 93 72.18 72.181 93 46.5 93S0 72.18 0 46.5C0 20.818 20.819 0 46.5 0z"/></clipPath></defs><g opacity=".1"><path fill="#68009e" d="M46.5 0C72.181 0 93 20.818 93 46.5 93 72.18 72.181 93 46.5 93S0 72.18 0 46.5C0 20.818 20.819 0 46.5 0z"/><path fill="none" stroke="#292929" stroke-linecap="round" stroke-linejoin="round" stroke-miterlimit="50" stroke-width="36" d="M46.5 0C72.181 0 93 20.818 93 46.5 93 72.18 72.181 93 46.5 93S0 72.18 0 46.5C0 20.818 20.819 0 46.5 0z" clip-path="url(&quot;#a&quot;)"/></g></svg>